<svg version="1.1" id="Layer_1" xmlns="http://www.w3.org/2000/svg" xmlns:xlink="http://www.w3.org/1999/xlink" x="0px" y="0px" viewBox="0 0 41.3 41.2" style="enable-background:new 0 0 41.3 41.2;" xml:space="preserve">
 <style type="text/css">
  .st0{fill-rule:evenodd;clip-rule:evenodd;fill:#FFCC31;}
	.st1{fill-rule:evenodd;clip-rule:evenodd;fill:#008C4F;}
	.st2{fill-rule:evenodd;clip-rule:evenodd;fill:#FFFFFF;}
 </style>
 <desc>
  Created with sketchtool.
 </desc>
 <g id="Desk">
  <g id="_x31_00---Home-v1" transform="translate(-87.000000, -25.000000)">
   <g id="Components_x2F_Desk_x2F_Menu" transform="translate(58.000000, 0.000000)">
    <g id="Elements_x2F_Logo_x2F_Color" transform="translate(29.000000, 25.000000)">
     <polygon id="Fill-1" class="st0" points="0,10 41.3,10 41.3,0 0,0 				">
     </polygon>
     <path id="Fill-2" class="st1" d="M0,41.2h41.3V15H0V41.2z">
     </path>
     <path id="Fill-5" class="st2" d="M41.3,15v-5H0v5h7.9L3.5,30.2h9c3.9,0,4.6-0.9,5.4-1.6c1.1-0.9,1.6-3,1.2-4.5
					c-0.3-1-1.3-1.7-1.4-1.7c1.2-0.6,1.9-1.8,2-2c0.5-0.9,0.8-2.6-0.3-4c-0.9-1.1-2.8-1.5-4.1-1.5h9.6l-4.4,15.3H25l1.6-5.8h2.6
					c1.9,0,1.7,1.2,1.7,1.7l0.1,4.3l4.2,0c0,0-0.2-4.8-0.2-5.1c-0.1-1.2-0.9-1.8-1.6-1.8c1.3-0.4,2.5-1.6,2.9-2.3
					c0.5-0.9,0.9-2.3,0.4-3.7c-0.8-2-2.7-2.4-4.1-2.4H41.3z M28.4,18.1h3.3c1.5,0,1.6,1,1.6,1.3c0,0.7-0.6,2.1-2.5,2.1h-3.3
					C27.5,21.5,28.4,18.2,28.4,18.1L28.4,18.1z M9.8,23.8h3c1.5,0,1.5,0.4,1.7,0.7c0.2,0.3,0.1,1,0,1.3c-0.2,0.3-0.5,1.3-2.3,1.3
					H8.9C8.9,27.1,9.8,23.8,9.8,23.8L9.8,23.8z M11.5,18.1h3.4c0.7,0,1.3,0.4,1.3,1.2c0,1-0.8,1.7-1.9,1.7h-3.7L11.5,18.1z">
     </path>
    </g>
   </g>
  </g>
 </g>
</svg>